<svg xmlns="http://www.w3.org/2000/svg" xmlns:xlink="http://www.w3.org/1999/xlink" version="1.1" style="" xml:space="preserve" width="66" height="82.5"><rect id="backgroundrect" width="100%" height="100%" x="0" y="0" fill="none" stroke="none"/><g class="currentLayer" style=""><title>Layer 1</title><g id="svg_1" class="selected"><path d="M33.75757575035095,2.657575750350952 C16.557575750350953,2.657575750350952 2.657575750350952,16.557575750350953 2.657575750350952,33.75757575035095 s14,31.1 31.1,31.1 s31.1,-14 31.1,-31.1 S50.957575750350955,2.657575750350952 33.75757575035095,2.657575750350952 zM33.75757575035095,61.857575750350954 C18.257575750350952,61.857575750350954 5.6575757503509525,49.25757575035095 5.6575757503509525,33.75757575035095 S18.257575750350952,5.6575757503509525 33.75757575035095,5.6575757503509525 S61.857575750350954,18.257575750350952 61.857575750350954,33.75757575035095 S49.25757575035095,61.857575750350954 33.75757575035095,61.857575750350954 z" id="svg_2"/><path d="M45.65757575035095,30.65757575035095 L26.757575750350952,21.15757575035095 c-1.1,-0.5 -2.4,-0.5 -3.4,0.2 c-1,0.6000000000000001 -1.7000000000000002,1.8 -1.7000000000000002,3 v18.9 c0,1.2 0.6000000000000001,2.3 1.7000000000000002,3 c0.6000000000000001,0.30000000000000004 1.2,0.5 1.8,0.5 c0.5,0 1.1,-0.1 1.6,-0.4 l18.9,-9.5 c1.2,-0.6000000000000001 1.9,-1.8 1.9,-3.1 S46.857575750350954,31.257575750350952 45.65757575035095,30.65757575035095 zM44.357575750350954,34.15757575035095 l-18.9,9.5 c-0.2,0.1 -0.4,0 -0.5,0 c-0.1,-0.1 -0.2,-0.2 -0.2,-0.4 V24.257575750350952 c0,-0.2 0.1,-0.4 0.2,-0.4 c0.1,0 0.1,-0.1 0.30000000000000004,-0.1 c0.1,0 0.1,0 0.2,0.1 l18.9,9.5 c0.2,0.1 0.30000000000000004,0.30000000000000004 0.30000000000000004,0.4 S44.55757575035095,34.05757575035095 44.357575750350954,34.15757575035095 z" id="svg_3"/></g></g></svg>