<?xml version="1.0" ?><!DOCTYPE svg  PUBLIC '-//W3C//DTD SVG 1.1//EN'  'http://www.w3.org/Graphics/SVG/1.1/DTD/svg11.dtd'><svg enable-background="new 0 0 128 128" id="Layer_1" version="1.1" viewBox="0 0 128 128" xml:space="preserve" xmlns="http://www.w3.org/2000/svg" xmlns:xlink="http://www.w3.org/1999/xlink"><path d="M33.7,99c-6.5,6.5-13.9,7.9-21.6-1.3  c-7.5-9,1.6-18,24.2-40.7S62.9,46,70.2,38.7c18.6-18.6,47.2-24.4,34-10.8" fill="none" stroke="#3D3D3D" stroke-miterlimit="10" stroke-width="2"/><path d="M73.6,27.9L33.8,67.7C25.3,76.3,25,90.6,33.7,99c8.5,8.2,21.9,8.1,30.3-0.3c5.8-5.8,10.1-11.5,8.7-18.1  c-0.8-3.6,0.2-7.3,2.8-9.9l0.7-0.7c2.6-2.6,6.3-3.6,9.9-2.8c6.3,1.4,11.7-2.5,17.3-7.8c8.9-8.4,9.6-22.8,0.9-31.5  C95.7,19.5,82,19.5,73.6,27.9z" fill="#8DCEA8"/><path d="M73.6,27.9L33.8,67.7C25.3,76.3,25,90.6,33.7,99  c8.5,8.2,21.9,8.1,30.3-0.3c5.8-5.8,10.1-11.5,8.7-18.1c-0.8-3.6,0.2-7.3,2.8-9.9l0.7-0.7c2.6-2.6,6.3-3.6,9.9-2.8  c6.3,1.4,11.7-2.5,17.3-7.8c8.9-8.4,9.6-22.8,0.9-31.5C95.7,19.5,82,19.5,73.6,27.9z" fill="none" stroke="#3D3D3D" stroke-miterlimit="10" stroke-width="2"/><path d="  M59.9,94.6c-6,6-16,6.1-22.1,0.2c-3-2.8-4.6-6.8-4.6-11c0-4.5,1.7-8.8,4.8-11.9l39.8-39.8c6.1-6.1,16.2-6.2,22.3,0  c2.9,2.9,4.5,6.8,4.5,10.9c0,4.4-1.8,8.7-4.9,11.8c0,0-0.3,0.3-0.3,0.3c-5.6,5.2-8.9,7-12,6.3C81.7,60.2,76,61.8,72,65.8l-0.7,0.7  c-3.9,3.9-5.6,9.7-4.3,15.3C67.7,85.2,65.7,88.7,59.9,94.6z" fill="none" stroke="#3D3D3D" stroke-dasharray="5" stroke-linecap="square" stroke-linejoin="round" stroke-miterlimit="10" stroke-width="2"/></svg>