<?xml version="1.0" ?><!DOCTYPE svg  PUBLIC '-//W3C//DTD SVG 1.1//EN'  'http://www.w3.org/Graphics/SVG/1.1/DTD/svg11.dtd'><svg enable-background="new 0 0 128 128" id="Layer_1" version="1.1" viewBox="0 0 128 128" xml:space="preserve" xmlns="http://www.w3.org/2000/svg" xmlns:xlink="http://www.w3.org/1999/xlink"><path d="M88,82H30c-4.6,0-8-3.6-8-8.2V30.6c0-4.6,3.4-8.6,8-8.6h58" fill="#C1C1C0"/><path d="M88,82H30c-4.6,0-8-3.6-8-8.2V30.6  c0-4.6,3.4-8.6,8-8.6h58" fill="none" stroke="#3D3D3D" stroke-miterlimit="10" stroke-width="2"/><path d="M104,73.8c0,4.6-3.7,8.2-8.2,8.2H38.2c-4.6,0-8.2-3.7-8.2-8.2V30.2c0-4.6,3.7-8.2,8.2-8.2h57.5  c4.6,0,8.2,3.7,8.2,8.2V73.8z" fill="#E2E2E2"/><rect fill="#3D3D3D" height="5" width="45" x="57" y="17"/><path d="M104,73.8c0,4.6-3.7,8.2-8.2,8.2H38.2  c-4.6,0-8.2-3.7-8.2-8.2V30.2c0-4.6,3.7-8.2,8.2-8.2h57.5c4.6,0,8.2,3.7,8.2,8.2V73.8z" fill="none" stroke="#3D3D3D" stroke-miterlimit="10" stroke-width="2"/><path d="M108,55.9c0,2.3-1.8,4.1-4.1,4.1H66.1c-2.3,0-4.1-1.8-4.1-4.1V24.1c0-2.3,1.8-4.1,4.1-4.1h37.8  c2.3,0,4.1,1.8,4.1,4.1V55.9z" fill="#FFFFFF"/><path d="M108,55.9c0,2.3-1.8,4.1-4.1,4.1H66.1  c-2.3,0-4.1-1.8-4.1-4.1V24.1c0-2.3,1.8-4.1,4.1-4.1h37.8c2.3,0,4.1,1.8,4.1,4.1V55.9z" fill="none" stroke="#3D3D3D" stroke-miterlimit="10" stroke-width="2"/><rect fill="none" height="4" stroke="#3D3D3D" stroke-miterlimit="10" stroke-width="2" width="8" x="90" y="68"/><rect fill="none" height="4" stroke="#3D3D3D" stroke-miterlimit="10" stroke-width="2" width="23" x="62" y="68"/><rect fill="#C1C1C0" height="27" width="33" x="69" y="26"/><rect fill="none" height="27" stroke="#3D3D3D" stroke-miterlimit="10" stroke-width="2" width="33" x="69" y="26"/><circle cx="85.5" cy="39.7" fill="#53AF80" r="12.5"/><circle cx="85.5" cy="39.7" fill="none" r="12.5" stroke="#3D3D3D" stroke-miterlimit="10" stroke-width="2"/><circle cx="85.5" cy="39.7" fill="#3D3D3D" r="6"/><circle cx="47.3" cy="65.4" fill="#FFFFFF" r="8.2"/><circle cx="47.3" cy="65.4" fill="none" r="8.2" stroke="#3D3D3D" stroke-miterlimit="10" stroke-width="2"/><path d="M57,31.1c0-1.1-0.9-2.1-2.1-2.1H38.1c-1.1,0-2.1,0.9-2.1,2.1v11.9c0,1.1,0.9,2.1,2.1,2.1h16.9  c1.1,0,2.1-0.9,2.1-2.1V31.1z" fill="#8DCEA8"/><path d="M57,31.1c0-1.1-0.9-2.1-2.1-2.1H38.1  c-1.1,0-2.1,0.9-2.1,2.1v11.9c0,1.1,0.9,2.1,2.1,2.1h16.9c1.1,0,2.1-0.9,2.1-2.1V31.1z" fill="none" stroke="#3D3D3D" stroke-miterlimit="10" stroke-width="2"/><line fill="none" stroke="#3D3D3D" stroke-miterlimit="10" stroke-width="2" x1="40" x2="40" y1="29" y2="45"/><rect fill="#3D3D3D" height="11" width="8" x="22" y="57"/><path d="M54.7,12H42.3c-1.1,0-2.3,0.9-2.3,2.1V22h17v-7.9  C57,12.9,55.8,12,54.7,12z" fill="none" stroke="#3D3D3D" stroke-miterlimit="10" stroke-width="2"/><line fill="none" stroke="#3D3D3D" stroke-miterlimit="10" stroke-width="2" x1="51" x2="51" y1="12" y2="20"/><line fill="none" stroke="#3D3D3D" stroke-miterlimit="10" stroke-width="2" x1="46" x2="46" y1="12" y2="20"/><rect fill="#C1C1C0" height="6" width="56" x="38" y="82"/><rect fill="none" height="6" stroke="#3D3D3D" stroke-miterlimit="10" stroke-width="2" width="56" x="38" y="82"/><polyline fill="#C1C1C0" points="59,115 59,88 73,88 73,115 "/><polyline fill="none" points="59,115 59,88 73,88 73,115 " stroke="#3D3D3D" stroke-miterlimit="10" stroke-width="2"/><line fill="none" stroke="#3D3D3D" stroke-miterlimit="10" stroke-width="2" x1="65" x2="65" y1="88" y2="115"/></svg>