<svg xmlns:xlink="http://www.w3.org/1999/xlink" xmlns="http://www.w3.org/2000/svg" stroke-width="0.501" stroke-linejoin="bevel" fill-rule="evenodd" version="1.1" width="48" height="60" style=""><rect id="backgroundrect" width="100%" height="100%" x="0" y="0" fill="none" stroke="none"/><g class="currentLayer" style=""><title>Layer 1</title><g fill="none" stroke="black" font-family="Times New Roman" font-size="16" transform="scale(1,-1) " id="svg_1"><g id="svg_2"><g id="svg_3"><path d="M3.002,-46.996 C2.9050000000000002,-45.745 3.3440000000000003,-44.985 3.931,-43.972 C3.697,-42.761 3.172,-41.311 3.854,-40.152 C3.431,-38.986000000000004 3.612,-37.592 4.164,-36.491 C4.186,-34.839 3.569,-34.679 4.782,-33.387 L20.327,-26.462 C20.412,-25.68 21.043,-25.384 21.487,-24.95 L23.422,-24.632 L23.422,-21.288 L23.732,-21.209 " fill="none" stroke="#d1cfd1" stroke-width="1.125" stroke-linecap="round" stroke-linejoin="round" stroke-miterlimit="79.8403193612775" id="svg_4"/><path d="M44.902,-46.996 C45,-45.745 44.561,-44.985 43.973,-43.972 C44.209,-42.761 44.733,-41.311 44.051,-40.152 C44.473,-38.986000000000004 44.292,-37.592 43.741,-36.491 C43.719,-34.839 44.336,-34.679 43.123,-33.387 L27.578,-26.462 C27.493,-25.68 26.862000000000002,-25.384 26.418,-24.95 L24.483,-24.632 L24.483,-21.288 L24.174,-21.209 " fill="none" stroke="#d1cfd1" stroke-width="1.125" stroke-linecap="round" stroke-linejoin="round" stroke-miterlimit="79.8403193612775" id="svg_5"/><path d="M0.6160000000000001,-47.352 L5.127,-47.352 " fill="none" stroke="#d1cfd1" stroke-width="1.125" stroke-linecap="round" stroke-linejoin="round" stroke-miterlimit="79.8403193612775" id="svg_6"/><path d="M42.911,-47.352 L47.422,-47.352 " fill="none" stroke="#d1cfd1" stroke-width="1.125" stroke-linecap="round" stroke-linejoin="round" stroke-miterlimit="79.8403193612775" id="svg_7"/><path d="M4.221,-44.009 L7.306,-44.009 " fill="none" stroke="#d1cfd1" stroke-width="1.125" stroke-linecap="round" stroke-linejoin="round" stroke-miterlimit="79.8403193612775" id="svg_8"/><path d="M4.222,-40.334 L7.307,-40.334 " fill="none" stroke="#d1cfd1" stroke-width="1.125" stroke-linecap="round" stroke-linejoin="round" stroke-miterlimit="79.8403193612775" id="svg_9"/><path d="M4.222,-36.625 L7.307,-36.625 " fill="none" stroke="#d1cfd1" stroke-width="1.125" stroke-linecap="round" stroke-linejoin="round" stroke-miterlimit="79.8403193612775" id="svg_10"/><path d="M18.46,-47.554 L18.46,-34.817 L28.092,-34.817 L28.092,-47.633 " fill="none" stroke="#d1cfd1" stroke-width="1.125" stroke-linecap="round" stroke-linejoin="round" stroke-miterlimit="79.8403193612775" id="svg_11"/><path d="M40.658,-44.009 L43.742,-44.009 " fill="none" stroke="#d1cfd1" stroke-width="1.125" stroke-linecap="round" stroke-linejoin="round" stroke-miterlimit="79.8403193612775" id="svg_12"/><path d="M40.659,-40.334 L43.743,-40.334 " fill="none" stroke="#d1cfd1" stroke-width="1.125" stroke-linecap="round" stroke-linejoin="round" stroke-miterlimit="79.8403193612775" id="svg_13"/><path d="M40.659,-36.625 L43.743,-36.625 " fill="none" stroke="#d1cfd1" stroke-width="1.125" stroke-linecap="round" stroke-linejoin="round" stroke-miterlimit="79.8403193612775" id="svg_14"/><path d="M18.459,-2.189 L18.459,-34.834 " fill="none" stroke="#d1cfd1" stroke-width="1.125" stroke-linecap="round" stroke-linejoin="round" stroke-miterlimit="79.8403193612775" id="svg_15"/><path d="M18.685,-9.271 C21.946,-9.262999999999998 26.913,-8.387 29.653,-6.723999999999997 C27.345,-2.594000000000001 20.074,-1.820999999999998 18.61,-2.1880000000000024 " fill="none" stroke="#d1cfd1" stroke-width="1.125" stroke-linecap="round" stroke-linejoin="round" stroke-miterlimit="79.8403193612775" id="svg_16"/></g></g></g></g></svg>
